HIERARCHY
ROOT Hips
{
     OFFSET 0.81480 96.67000 67.59230
     CHANNELS 6 Xposition Yposition Zposition Zrotation Xrotation Yrotation
     JOINT Spine
     {
          OFFSET 0.00000 11.89050 -0.00000
          CHANNELS 3 Zrotation Xrotation Yrotation
          JOINT Spine1
          {
               OFFSET 0.00000 25.65740 0.12766
               CHANNELS 3 Zrotation Xrotation Yrotation
               JOINT HEad
               {
                    OFFSET 0.00000 8.73416 0.01134
                    CHANNELS 3 Zrotation Xrotation Yrotation
                    End Site
                    {
                         OFFSET -0.29000 12.77420 2.51395
                    }
               }
               JOINT LeftShoulder1
               {
                    OFFSET 8.99000 -0.36225 -0.22000
                    CHANNELS 3 Zrotation Xrotation Yrotation
                    JOINT LeftArm
                    {
                         OFFSET 10.28270 -0.00338 0.32212
                         CHANNELS 3 Zrotation Xrotation Yrotation
                         JOINT LeftForeArm
                         {
                              OFFSET 32.76690 0.09914 -1.42434
                              CHANNELS 3 Zrotation Xrotation Yrotation
                              JOINT LeftHand
                              {
                                   OFFSET 27.56430 0.08536 1.02216
                                   CHANNELS 3 Zrotation Xrotation Yrotation
                                   End Site
                                   {
                                        OFFSET 16.74430 -0.60000 1.50291
                                   }
                              }
                         }
                    }
               }
               JOINT RightShoulder
               {
                    OFFSET -8.99000 -0.36225 -0.22000
                    CHANNELS 3 Zrotation Xrotation Yrotation
                    JOINT RightArm
                    {
                         OFFSET -10.28270 -0.00338 0.32212
                         CHANNELS 3 Zrotation Xrotation Yrotation
                         JOINT RightForeArm
                         {
                              OFFSET -32.89710 0.09914 -1.42434
                              CHANNELS 3 Zrotation Xrotation Yrotation
                              JOINT RightHand
                              {
                                   OFFSET -27.49210 0.08536 1.02216
                                   CHANNELS 3 Zrotation Xrotation Yrotation
                                   End Site
                                   {
                                        OFFSET -16.63120 -0.60000 1.50291
                                   }
                              }
                         }
                    }
               }
          }
     }
     JOINT LeftUpLeg
     {
          OFFSET 8.94580 -8.66707 0.10165
          CHANNELS 3 Zrotation Xrotation Yrotation
          JOINT LeftLeg
          {
               OFFSET -0.00000 -44.42270 1.37270
               CHANNELS 3 Zrotation Xrotation Yrotation
               JOINT LeftFoot
               {
                    OFFSET -0.25355 -42.09240 -1.46059
                    CHANNELS 3 Zrotation Xrotation Yrotation
                    JOINT LeftToes
                    {
                         OFFSET -0.04000 -4.41509 8.49910
                         CHANNELS 3 Zrotation Xrotation Yrotation
                         End Site
                         {
                              OFFSET 0.08000 -0.04745 9.77979
                         }
                    }
               }
          }
     }
     JOINT RightUpLeg
     {
          OFFSET -8.94580 -8.66707 0.10165
          CHANNELS 3 Zrotation Xrotation Yrotation
          JOINT RightLeg
          {
               OFFSET -0.00000 -44.42270 1.37270
               CHANNELS 3 Zrotation Xrotation Yrotation
               JOINT RightFoot
               {
                    OFFSET 0.25355 -42.09240 -1.46059
                    CHANNELS 3 Zrotation Xrotation Yrotation
                    JOINT RightToes
                    {
                         OFFSET 0.04000 -4.41509 8.49910
                         CHANNELS 3 Zrotation Xrotation Yrotation
                         End Site
                         {
                              OFFSET -0.08000 -0.13745 9.77979
                         }
                    }
               }
          }
     }
}
MOTION
Frames: 17
Frame Time: 0.01667
-8.63599 98.04230 -70.72450 -2.31315 -2.13013 -52.48750 1.44625 3.88991 2.96657 5.37414 7.67365 5.13680 -9.27953 -3.98156 16.24630 -0.00000 -0.00000 0.00000 -156.79800 -34.52700 -127.79900 -10.40680 61.84220 -98.16080 34.21210 3.97965 -15.29880 -0.30344 0.76138 13.34930 94.12990 5.27708 82.73500 4.75859 32.21620 89.95720 -20.59710 10.21270 -6.13244 9.61403 -10.64990 -17.21240 -10.94300 19.26230 42.89890 -24.54660 -1.28981 1.37886 9.66982 -8.65763 -62.47430 -15.30270 8.21966 -19.63710 -3.20296 19.89900 3.89065 17.10540 -5.89007 -0.42781 1.88545 -17.44990 34.73390 
-8.68286 97.98230 -71.18040 -2.41068 -2.20185 -52.78200 1.56974 3.86976 2.95725 5.49554 7.64512 5.13498 -9.83336 -3.50732 16.35460 -0.00000 -0.00000 0.00000 -157.55400 -34.78020 -128.03400 -10.59610 62.09580 -98.27530 34.34080 3.97723 -15.22850 -0.37999 0.75626 13.47330 94.15140 5.18195 82.66350 4.12434 32.18000 90.36720 -20.61980 10.22600 -6.20763 10.12790 -10.72890 -17.62940 -11.52760 19.25130 43.66470 -25.05200 -0.89436 1.49337 9.70875 -8.58597 -62.58300 -15.13650 8.26052 -19.55180 -3.12324 19.77620 3.98128 17.09130 -6.63924 -0.31940 1.73961 -17.09750 34.86280 
-8.72950 97.93050 -71.64650 -2.48874 -2.26736 -52.97100 1.72625 3.83807 2.90914 5.64421 7.59468 5.06116 -10.37640 -3.09320 16.55940 -0.00000 -0.00000 0.00000 -158.22200 -35.08990 -128.24500 -10.69940 62.30560 -98.45900 34.43210 3.99394 -15.11990 -0.46558 0.75091 13.62630 94.15480 5.02889 82.59450 3.69026 32.18990 90.67540 -20.69750 10.21250 -6.12215 10.65930 -10.85450 -18.16890 -12.13690 19.18520 44.43650 -25.60080 -0.36715 1.64335 9.73319 -8.59315 -62.78080 -15.00590 8.25141 -19.49720 -2.97637 19.79410 3.99369 16.94010 -7.38080 -0.21175 1.60589 -16.77510 35.03610 
-8.77084 97.89300 -72.12030 -2.55126 -2.35691 -53.08680 1.90669 3.81182 2.83782 5.80195 7.55697 4.94606 -10.90210 -2.76495 16.83320 -0.00000 -0.00000 0.00000 -158.78200 -35.44430 -128.42799 -10.75900 62.45490 -98.65560 34.43110 4.01829 -15.04250 -0.59123 0.73989 13.78040 94.14750 4.84125 82.54830 3.83607 32.24940 90.68640 -20.75320 10.16540 -5.84629 11.19170 -11.00440 -18.83270 -12.78100 19.06680 45.18930 -26.17720 0.30909 1.83411 9.73813 -8.66963 -63.00980 -14.89690 8.21333 -19.53190 -2.85202 19.89090 3.98942 16.70710 -8.03387 -0.11880 1.49619 -16.51200 35.24080 
-8.80026 97.87290 -72.60560 -2.59414 -2.48824 -53.15910 2.08107 3.80398 2.76112 5.93007 7.55678 4.82254 -11.43810 -2.51092 17.12720 -0.00000 -0.00000 0.00000 -159.17101 -35.82470 -128.58600 -10.68200 62.51340 -98.93050 34.32340 4.04985 -15.00530 -0.72464 0.72599 13.89570 94.12080 4.66319 82.55480 4.52306 32.34130 90.44290 -20.69110 10.10520 -5.50361 11.69930 -11.18890 -19.56090 -13.42750 18.95620 45.79840 -26.81440 1.12032 2.06792 9.74207 -8.73509 -63.20540 -14.80250 8.15757 -19.64220 -2.79875 20.00390 3.98897 16.55060 -8.52076 -0.05106 1.41583 -16.32050 35.49310 
-8.81242 97.86490 -73.10370 -2.61206 -2.65262 -53.20410 2.21599 3.81653 2.69527 5.99652 7.59584 4.71858 -11.96930 -2.29405 17.40660 -0.00000 -0.00000 0.00000 -159.28000 -36.21680 -128.69701 -10.34020 62.44570 -99.39270 34.14600 4.09980 -14.95030 -0.78419 0.71929 13.93640 94.03510 4.53897 82.62560 5.32300 32.42720 90.18180 -20.49830 10.06410 -5.27541 12.15360 -11.45160 -20.26900 -14.00900 18.96280 46.09280 -27.52170 2.01396 2.33687 9.75025 -8.75517 -63.31750 -14.71340 8.07876 -19.76320 -2.82209 20.10410 3.98438 16.63630 -8.81745 -0.00853 1.35881 -16.18620 35.79590 
-8.80644 97.85960 -73.60510 -2.60531 -2.82155 -53.22450 2.29461 3.83997 2.65385 6.00229 7.65316 4.65661 -12.42170 -2.07783 17.65040 -0.00000 -0.00000 0.00000 -159.02901 -36.60830 -128.70599 -9.73138 62.24100 -100.04000 33.93220 4.17664 -14.82860 -0.70716 0.72797 13.88450 93.85110 4.48583 82.73100 5.86533 32.47670 90.08140 -20.23980 10.05510 -5.23526 12.52740 -11.82660 -20.89580 -14.43500 19.17000 45.93850 -28.20630 2.94440 2.62410 9.71927 -8.85722 -63.34970 -14.60660 7.96834 -19.87020 -2.92887 20.18640 3.99578 17.02660 -8.98370 0.01959 1.29829 -16.04580 36.11880 
-8.78494 97.85140 -74.08860 -2.58409 -2.96036 -53.21790 2.33072 3.85895 2.64185 5.98062 7.69831 4.64599 -12.71770 -1.84952 17.84590 -0.00000 -0.00000 0.00000 -158.47301 -36.98230 -128.59200 -9.01077 61.94800 -100.72900 33.66990 4.28165 -14.64130 -0.49995 0.75155 13.75940 93.55230 4.48710 82.81690 6.06070 32.47130 90.14620 -19.99570 10.06600 -5.31217 12.80260 -12.29830 -21.41690 -14.59880 19.57680 45.26920 -28.72050 3.86730 2.90299 9.60353 -9.20553 -63.38770 -14.43950 7.83030 -20.04480 -3.16537 20.23380 4.11706 17.64600 -9.11703 0.04703 1.20605 -15.83370 36.40670 
-8.75244 97.83930 -74.52710 -2.56390 -3.03985 -53.19590 2.35514 3.86285 2.65418 5.97830 7.71180 4.67886 -12.85340 -1.62350 17.98960 -0.00000 -0.00000 0.00000 -157.81300 -37.31580 -128.42000 -8.42582 61.67000 -101.24700 33.32630 4.40379 -14.44200 -0.23251 0.78219 13.61870 93.13570 4.51589 82.85230 6.01042 32.39180 90.26840 -19.82360 10.07490 -5.37528 12.97500 -12.79660 -21.81530 -14.39400 20.10620 44.10070 -29.00280 4.66754 3.13317 9.44440 -9.73431 -63.58500 -14.17230 7.67868 -20.40880 -3.59128 20.21190 4.46446 18.37920 -9.28938 0.08374 1.06434 -15.50930 36.62940 
-8.71535 97.81890 -74.89410 -2.55298 -3.04060 -53.19340 2.39654 3.84769 2.68213 6.03050 7.68773 4.74029 -12.90430 -1.41296 18.07860 -0.00000 -0.00000 0.00000 -157.26601 -37.59140 -128.29800 -8.13710 61.49700 -101.46200 32.92020 4.52024 -14.29410 0.02795 0.81363 13.53170 92.59390 4.55427 82.84430 5.88892 32.22610 90.31050 -19.74250 10.06550 -5.32304 13.05920 -13.23140 -22.07100 -13.77620 20.64100 42.59260 -29.09060 5.15071 3.26434 9.34902 -10.17170 -64.06230 -13.80670 7.51408 -20.99870 -4.20247 20.11250 5.08030 19.11300 -9.52595 0.13330 0.88056 -15.08920 36.77990 
-8.67972 97.78100 -75.16750 -2.54939 -2.95743 -53.25630 2.47012 3.81101 2.71916 6.14091 7.62312 4.82067 -12.94630 -1.20441 18.11360 -0.00000 -0.00000 0.00000 -156.92700 -37.81460 -128.28500 -8.06578 61.44860 -101.47500 32.55290 4.61449 -14.19430 0.27819 0.84816 13.54880 91.92570 4.59571 82.80440 5.84099 31.98930 90.19510 -19.70880 10.03760 -5.15532 13.09600 -13.51710 -22.19920 -12.83980 21.01960 41.09280 -29.01080 5.14970 3.25463 9.37845 -10.32140 -64.74960 -13.39630 7.31898 -21.72260 -4.90056 19.97520 5.89911 19.68690 -9.78855 0.18742 0.72070 -14.72280 36.83710 
-8.64581 97.71840 -75.33270 -2.55492 -2.79984 -53.41410 2.58782 3.75347 2.76057 6.29376 7.52188 4.91589 -13.00340 -0.99340 18.10840 -0.00000 -0.00000 0.00000 -156.78600 -38.00450 -128.37700 -8.01046 61.48550 -101.50500 32.33520 4.68433 -14.08550 0.54273 0.88996 13.67290 91.17140 4.65307 82.72830 5.91604 31.71740 89.95280 -19.63330 10.00620 -4.96715 13.14310 -13.59420 -22.28060 -11.81640 21.07920 40.06900 -28.79310 4.64742 3.10427 9.51387 -10.15550 -65.36450 -13.01350 7.08115 -22.41340 -5.54403 19.86840 6.77187 19.97470 -10.00860 0.23080 0.66258 -14.58720 36.79950 
-8.60740 97.63310 -75.38730 -2.58039 -2.59063 -53.65340 2.75425 3.68649 2.80326 6.48278 7.40750 5.02100 -13.06320 -0.83018 18.07540 -0.00000 -0.00000 0.00000 -156.80099 -38.15780 -128.53101 -7.87272 61.56120 -101.66900 32.29960 4.73217 -13.94190 0.79928 0.93327 13.83600 90.41720 4.76404 82.61710 6.07391 31.44510 89.67280 -19.47360 9.98332 -4.83185 13.24530 -13.44810 -22.44100 -10.96970 20.73480 39.91130 -28.54260 3.81373 2.87086 9.71629 -9.68892 -65.60590 -12.70820 6.81758 -22.93530 -6.03464 19.84370 7.54482 20.02450 -10.16060 0.25806 0.70270 -14.67680 36.72080 
-8.55720 97.53080 -75.34270 -2.64014 -2.35546 -53.91690 2.95953 3.62756 2.84535 6.71393 7.31230 5.12679 -13.09770 -0.79074 18.02100 -0.00000 -0.00000 0.00000 -156.93201 -38.24370 -128.67101 -7.67082 61.65280 -101.95300 32.39730 4.76057 -13.78580 1.00420 0.96644 13.92920 89.74730 4.95364 82.48800 6.21193 31.20600 89.45090 -19.28080 9.96811 -4.74269 13.41670 -13.12020 -22.77420 -10.47050 20.02960 40.69390 -28.32870 2.91895 2.62988 9.92628 -9.02537 -65.34450 -12.49030 6.56753 -23.25130 -6.34777 19.91660 8.13375 19.97880 -10.27320 0.27639 0.77986 -14.85270 36.65390 
-8.49318 97.41760 -75.22200 -2.73694 -2.12013 -54.13430 3.16722 3.58714 2.88154 6.97909 7.25115 5.21415 -13.07670 -0.91463 17.96410 -0.00000 -0.00000 0.00000 -157.11700 -38.24530 -128.73199 -7.45457 61.75950 -102.30500 32.54640 4.77553 -13.64670 1.17138 0.98730 13.88760 89.19070 5.19541 82.35200 6.21933 31.02990 89.37630 -19.13130 9.95772 -4.68104 13.64280 -12.68560 -23.26980 -10.34190 19.09120 42.07660 -27.99470 2.20441 2.42501 10.00550 -8.53566 -64.62280 -12.35920 6.37130 -23.34860 -6.46237 20.08220 8.46506 19.90620 -10.38280 0.29346 0.85374 -15.02210 36.60450 
-8.41861 97.30110 -75.05500 -2.85247 -1.91690 -54.25350 3.32448 3.56311 2.89848 7.23934 7.21311 5.24991 -12.99540 -1.17412 17.93400 -0.00000 -0.00000 0.00000 -157.27499 -38.19700 -128.69200 -7.30199 61.87700 -102.63900 32.67200 4.78605 -13.53760 1.37556 1.00772 13.75000 88.71630 5.42479 82.19490 6.07076 30.92000 89.49000 -19.06250 9.95266 -4.65054 13.87570 -12.23370 -23.79990 -10.47010 18.09840 43.44400 -27.30640 1.75830 2.25762 9.83455 -8.61495 -63.58050 -12.32880 6.25256 -23.19440 -6.34331 20.32900 8.44355 19.79730 -10.50610 0.31178 0.91555 -15.16380 36.55620 
-8.33771 97.19410 -74.87410 -2.95922 -1.78623 -54.25380 3.38900 3.55174 2.88487 7.44675 7.18632 5.20870 -12.89220 -1.48036 17.93340 -0.00000 -0.00000 0.00000 -157.32201 -38.16460 -128.55600 -7.26646 61.97980 -102.88500 32.73290 4.80126 -13.45050 1.67449 1.04001 13.60410 88.27830 5.59331 81.99550 5.87541 30.85340 89.73600 -19.07350 9.95166 -4.64404 14.03410 -11.84770 -24.16320 -10.64520 17.27590 44.22320 -26.38530 1.50542 2.12058 9.50381 -9.14189 -62.45580 -12.40210 6.21681 -22.81880 -6.03295 20.61970 8.06071 19.64810 -10.62830 0.32860 0.96788 -15.28370 36.50340 
